<svg width="18" height="20" viewBox="0 0 18 20" fill="none" xmlns="http://www.w3.org/2000/svg">
<path d="M5 2.5C5 3.88071 3.88071 5 2.5 5C1.11929 5 0 3.88071 0 2.5C0 1.11929 1.11929 0 2.5 0C3.88071 0 5 1.11929 5 2.5Z" fill="black"/>
<path d="M18 2.5C18 3.88071 16.8807 5 15.5 5C14.1193 5 13 3.88071 13 2.5C13 1.11929 14.1193 0 15.5 0C16.8807 0 18 1.11929 18 2.5Z" fill="black"/>
<path d="M5 17.5C5 18.8807 3.88071 20 2.5 20C1.11929 20 0 18.8807 0 17.5C0 16.1193 1.11929 15 2.5 15C3.88071 15 5 16.1193 5 17.5Z" fill="black"/>
<path d="M18 17.5C18 18.8807 16.8807 20 15.5 20C14.1193 20 13 18.8807 13 17.5C13 16.1193 14.1193 15 15.5 15C16.8807 15 18 16.1193 18 17.5Z" fill="black"/>
</svg>
