<svg width="293" height="40" viewBox="0 0 293 40" fill="none" xmlns="http://www.w3.org/2000/svg">
<path d="M293 7.06459C293 8.76702 291.618 10.1494 289.914 10.1494C288.213 10.1494 286.831 8.76906 286.831 7.06459C286.831 5.36012 288.213 3.97983 289.914 3.97983C291.62 3.97983 293 5.36012 293 7.06459ZM289.916 4.49362C288.497 4.49362 287.347 5.64352 287.347 7.06459C287.347 8.48362 288.495 9.63557 289.916 9.63557C291.337 9.63557 292.488 8.48362 292.488 7.06459C292.486 5.64352 291.337 4.49362 289.916 4.49362ZM291.251 6.41216C291.251 6.86886 290.774 7.29294 290.293 7.29294C290.562 7.38469 290.772 7.62731 291.471 8.77722H290.817C290.301 7.90256 290.115 7.36838 289.567 7.36838H289.214V8.77722H288.684V5.45391H290.022C291.029 5.45391 291.251 5.95343 291.251 6.41216ZM289.214 6.90964H289.936C290.397 6.90964 290.688 6.78323 290.688 6.40401C290.688 6.02682 290.395 5.90042 289.936 5.90042H289.214V6.90964ZM284.159 35.7551H250.247V4.2408H283.576V9.88635H257.857V16.796H275.529V22.4599H257.857V29.7915H284.159V35.7551ZM33.9117 29.7915H7.60999V22.4599H25.2803V16.796H7.60999V9.88635H33.3286V4.2408H0V35.7551H33.9117V29.7915ZM97.984 10.182H113.145V4.2408H75.2723V10.182H90.3455V35.7551H97.986V10.182H97.984ZM205.761 4.2408H225.876C238.183 4.2408 244.806 9.61518 244.806 19.9582C244.806 26.1869 242.003 30.3502 237.428 33.1556C234.248 35.1639 229.788 35.7531 223.927 35.7531H205.761V4.2408ZM222.845 29.4939C232.532 29.4939 237.225 28.0748 237.225 19.8094C237.225 13.0465 233.231 10.1799 226.027 10.1799H213.487V29.4939H222.845ZM166.083 35.7551H158.442L176.93 4.2408H184.456L203.262 35.7551H194.657L190.725 29.4939H169.901L166.083 35.7551ZM173.167 23.4997H187.549L180.493 10.7427L173.167 23.4997ZM125.674 35.7551H118.123V4.2408H143.556C150.638 4.2408 155.276 8.43673 155.276 14.5451C155.276 19.5097 152.881 22.7331 148.19 24.0257L156.116 35.7531H147.595L139.964 24.5884H125.676V35.7551H125.674ZM125.674 18.5331H142.733C145.945 18.5331 147.811 16.9428 147.811 14.3392C147.811 11.9497 145.915 10.2921 142.706 10.2921H125.676V18.5331H125.674Z" fill="#444A56"/>
<path d="M62.4578 15.7582H75.7513V24.2418H62.4578L69.1056 35.7551L61.7586 40L55.1108 28.4826L50.2121 19.999L55.1108 11.5133L61.7586 0L69.1056 4.24079L62.4578 15.7582Z" fill="#444A56"/>
<path d="M47.7638 15.7582H34.4682V24.2418H47.7638L41.118 35.7551L48.465 40L55.1108 28.4826L60.0095 19.999L55.1108 11.5133L48.465 0L41.118 4.24079L47.7638 15.7582Z" fill="#444A56"/>
</svg>
