<svg width="234" height="37" viewBox="0 0 234 37" fill="none" xmlns="http://www.w3.org/2000/svg">
<path d="M41.1823 35.6913H47.4125V0.633575H41.1823V35.6913Z" fill="#444A56"/>
<path d="M104.117 15.2586C110.611 16.7897 114.413 19.0072 115.31 23.3366C115.469 24.023 115.522 24.7094 115.522 25.5013C115.522 32.0483 110.981 36.1665 103.537 36.1665C98.0984 36.1665 92.3434 34.0546 88.1196 30.3588L91.8682 25.9765C95.2473 28.8804 99.3127 30.7811 103.695 30.7811C107.549 30.7811 109.292 28.7748 109.292 26.0821C109.292 23.5478 107.866 22.2279 101.319 20.6967C93.769 18.9016 89.3867 16.4201 89.3867 9.92599C89.3867 3.85424 93.8746 0 100.949 0C106.124 0 110.875 1.63673 114.466 4.48782L111.139 9.08122C107.972 6.75811 104.381 5.17418 101.108 5.17418C97.4648 5.17418 95.6169 7.0221 95.6169 9.34521C95.5641 12.1435 97.3064 13.6746 104.117 15.2586Z" fill="#444A56"/>
<path d="M163.568 0.633575L155.067 26.4517L146.303 0.633575H140.97L132.206 26.4517L123.705 0.633575H116.947L129.355 35.6913H134.793L143.557 10.718L152.322 35.6913H157.707L170.115 0.633575H163.568Z" fill="#444A56"/>
<path d="M219.797 24.023H211.191V35.6913H204.961V0.686377H220.537C228.773 0.686377 234 4.8574 234 11.9851C233.947 19.7992 228.139 24.023 219.797 24.023ZM220.009 6.23015H211.191V18.532H220.009C224.708 18.532 227.664 16.7369 227.664 12.2491C227.664 7.3917 224.655 6.23015 220.009 6.23015ZM77.6128 35.6913L69.8515 23.9174H62.0374V35.6913H55.8073V0.686377H71.5939C79.7247 0.686377 84.7405 5.49098 84.7405 12.3019C84.7405 18.0569 81.2559 21.5415 76.2929 22.8615L84.8989 35.6913H77.6128ZM71.1187 6.23015H62.0374V18.4793H71.1187C75.5537 18.4793 78.4048 15.8394 78.4048 12.2491C78.4576 8.44766 75.7121 6.23015 71.1187 6.23015ZM0 35.6913H6.54693C6.54693 35.6913 11.2459 25.607 25.079 26.7685L28.8276 35.6913H35.3745L20.9079 0.686377H14.7834L0 35.6913ZM17.9513 7.97247L23.0199 21.2247C23.0199 21.2247 17.4761 21.0135 11.8795 23.7062L17.9513 7.97247ZM186.376 0.633575H180.252L165.785 35.6386H172.332L176.081 26.7157C189.914 25.5542 194.613 35.6386 194.613 35.6386H201.16L186.376 0.633575ZM189.333 23.7062C183.789 21.0135 178.193 21.2247 178.193 21.2247L183.261 7.97247L189.333 23.7062Z" fill="#444A56"/>
</svg>
