<svg width="228" height="74" viewBox="0 0 228 74" fill="none" xmlns="http://www.w3.org/2000/svg">
<path fill-rule="evenodd" clip-rule="evenodd" d="M10.407 56.2096H6.50473L0 38.2431H4.14621L8.37415 52.389H8.45458L12.846 38.2431H16.9922L21.3823 52.389H21.464L26.0176 38.2431H29.7564L23.253 56.2096H19.3494L14.7971 42.3063H14.7154L10.407 56.2096Z" fill="#444A56"/>
<path fill-rule="evenodd" clip-rule="evenodd" d="M35.3673 47.1842C35.3673 44.8283 36.4233 40.3552 41.8708 40.3552C47.2377 40.3552 48.3755 44.827 48.3755 47.1842C48.3755 49.6245 47.2377 54.0963 41.8708 54.0963C36.4233 54.0963 35.3673 49.6245 35.3673 47.1842ZM31.4637 47.1842C31.4637 51.8182 34.7161 56.6987 41.8694 56.6987C49.0241 56.6987 52.2765 51.8182 52.2765 47.1842C52.2765 42.5502 49.0241 37.7528 41.8694 37.7528C34.7161 37.7541 31.4637 42.5502 31.4637 47.1842Z" fill="#444A56"/>
<path fill-rule="evenodd" clip-rule="evenodd" d="M60.8141 56.2096H57.0739V38.2418H60.6506V41.249H60.7323C62.1957 39.1357 64.1469 37.7528 66.9932 37.7528C67.481 37.7528 67.7249 37.7528 67.9688 37.8345V40.926H66.5871C63.0909 40.926 60.8141 43.1197 60.8141 45.8039V56.2096Z" fill="#444A56"/>
<path fill-rule="evenodd" clip-rule="evenodd" d="M71.5468 31.575H75.3673V56.2096H71.5468V31.575Z" fill="#444A56"/>
<path fill-rule="evenodd" clip-rule="evenodd" d="M83.5793 47.1842C83.5793 44.9087 83.9036 40.4369 89.7584 40.4369C95.2058 40.4369 95.7753 45.1526 95.7753 48.0794C95.7753 52.7951 92.0352 54.0976 89.6767 54.0976C85.5305 54.0963 83.5793 51.0891 83.5793 47.1842ZM99.5959 31.575H95.8558V40.7638H95.7741C94.7985 39.7856 93.0912 37.754 89.0254 37.754C83.0902 37.754 79.6757 41.6564 79.6757 46.699C79.6757 51.0061 81.9512 56.7 89.595 56.7C91.7083 56.7 94.3107 56.1305 95.9362 53.6902H96.0179V56.2109H99.5946V31.575H99.5959Z" fill="#444A56"/>
<path fill-rule="evenodd" clip-rule="evenodd" d="M117.889 42.1441H113.417V50.2757C113.417 51.656 114.393 51.983 116.02 51.983C116.588 51.983 117.238 51.9 117.889 51.9V56.2096C116.588 56.2096 115.206 56.3718 113.905 56.3718C107.726 56.3718 106.101 54.9097 106.101 50.1135V42.1441H102.442V38.404H106.101V33.0383H113.417V38.404H117.889V42.1441Z" fill="#444A56"/>
<path fill-rule="evenodd" clip-rule="evenodd" d="M121.384 38.4053H128.457V41.4942H128.539C129.678 39.2187 132.117 38.081 135.288 38.081C135.856 38.081 136.425 38.0809 136.995 38.1627V43.5271C136.018 43.2832 135.206 43.121 134.23 43.121C130.572 43.121 128.701 45.1526 128.701 47.3502V56.2109H121.383V38.4053H121.384Z" fill="#444A56"/>
<path fill-rule="evenodd" clip-rule="evenodd" d="M145.532 51.0891C145.532 49.7062 146.914 49.1354 148.54 48.811C150.085 48.4867 151.955 48.405 153.011 47.8354C153.174 51.4938 152.036 53.1207 148.54 53.1207C146.914 53.1207 145.532 52.5512 145.532 51.0891ZM145.939 43.8527C146.263 42.388 147.564 41.6563 149.597 41.6563C151.06 41.6563 153.092 42.1454 153.092 43.5258C153.092 44.5844 152.442 44.9087 151.141 45.1526C146.099 45.966 138.213 45.56 138.213 51.333C138.213 54.9914 141.546 56.7 145.775 56.7C148.457 56.7 151.221 56.0487 153.172 54.5036C153.254 55.0732 153.336 55.6414 153.578 56.2109H160.897C160.083 54.7488 160.083 53.122 160.083 51.6573V43.8527C160.083 38.8101 154.961 37.8345 149.677 37.8345C147.157 37.8345 144.556 38.2418 142.604 39.137C140.652 40.0308 139.272 41.5746 139.108 43.8527H145.939Z" fill="#444A56"/>
<path fill-rule="evenodd" clip-rule="evenodd" d="M175.533 42.3063C178.703 42.3063 179.841 44.6648 179.841 47.2646C179.841 49.5427 179.111 52.2255 175.533 52.2255C172.2 52.2255 171.062 49.5427 171.062 47.1025C171.061 44.8283 172.199 42.3063 175.533 42.3063ZM186.914 31.7384H179.597V40.2747H179.516C177.97 38.7296 175.938 37.8345 173.173 37.8345C166.832 37.8345 163.742 42.2259 163.742 46.8599C163.742 51.8999 166.749 56.6987 173.741 56.6987C176.262 56.6987 178.457 55.8048 179.839 54.0963H179.92V56.2096H186.911V31.7384H186.914Z" fill="#444A56"/>
<path fill-rule="evenodd" clip-rule="evenodd" d="M198.053 45.4795C198.542 43.2832 200.248 41.8211 202.77 41.8211C205.209 41.8211 206.998 43.4454 207.16 45.4795H198.053ZM214.396 48.7306C214.721 42.7149 210.738 37.8358 202.77 37.8358C196.265 37.8358 190.818 41.8211 190.818 47.2672C190.818 53.2037 195.697 56.7 202.932 56.7C207.973 56.7 212.689 54.911 213.989 50.8439H207.24C206.51 52.1464 204.801 52.7951 203.012 52.7951C199.922 52.7951 198.216 51.1708 198.053 48.7306H214.396Z" fill="#444A56"/>
<path fill-rule="evenodd" clip-rule="evenodd" d="M53.579 22.6325V22.7661C50.6561 23.9921 49.0254 24.7445 49.0254 24.7445C49.4081 24.3631 51.1608 23.586 53.579 22.6325Z" fill="#444A56"/>
<path fill-rule="evenodd" clip-rule="evenodd" d="M58.0495 20.9396C56.4356 21.5337 54.9061 22.1097 53.5777 22.6326V22.7662C54.8373 22.2382 56.337 21.622 58.0495 20.9396Z" fill="#444A56"/>
<path fill-rule="evenodd" clip-rule="evenodd" d="M62.6031 19.17V19.2985C61.0735 19.8407 59.5271 20.3973 58.0508 20.9408V20.9395C59.4337 20.3882 60.9542 19.7953 62.6031 19.17Z" fill="#444A56"/>
<path fill-rule="evenodd" clip-rule="evenodd" d="M67.1566 17.4848V17.7054C65.7217 18.2022 64.1728 18.7419 62.6031 19.2985V19.17C64.0301 18.6277 65.5505 18.0647 67.1566 17.4848Z" fill="#444A56"/>
<path fill-rule="evenodd" clip-rule="evenodd" d="M71.7089 15.8788V16.1408C70.4777 16.5598 68.9027 17.0995 67.1566 17.7054V17.4848C68.6056 16.962 70.1274 16.4236 71.7089 15.8788Z" fill="#444A56"/>
<path fill-rule="evenodd" clip-rule="evenodd" d="M76.1808 14.3791V14.6839C75.5853 14.8643 74.9885 15.0472 74.3917 15.234C74.3917 15.234 73.3578 15.5817 71.7089 16.1421V15.8801C73.1489 15.3832 74.6422 14.8824 76.1808 14.3791Z" fill="#444A56"/>
<path fill-rule="evenodd" clip-rule="evenodd" d="M80.733 12.9273V13.3529C79.219 13.7784 77.6999 14.2221 76.1808 14.6826V14.3778C77.6558 13.8952 79.1762 13.4099 80.733 12.9273Z" fill="#444A56"/>
<path fill-rule="evenodd" clip-rule="evenodd" d="M85.2865 11.5573V12.1255C83.7764 12.5173 82.2586 12.926 80.733 13.3529V12.9273C82.2171 12.4668 83.7349 12.0101 85.2865 11.5573Z" fill="#444A56"/>
<path fill-rule="evenodd" clip-rule="evenodd" d="M89.7583 10.29V11.0073C88.2807 11.3628 86.7875 11.7364 85.2865 12.1255V11.5573C86.7499 11.1305 88.2418 10.7064 89.7583 10.29Z" fill="#444A56"/>
<path fill-rule="evenodd" clip-rule="evenodd" d="M94.3106 9.08339V9.95261C92.8109 10.2873 91.2917 10.6389 89.7583 11.0073V10.29C91.2528 9.88001 92.772 9.47647 94.3106 9.08339Z" fill="#444A56"/>
<path fill-rule="evenodd" clip-rule="evenodd" d="M98.8642 7.96123V8.97574C97.371 9.28321 95.8519 9.60881 94.3107 9.9513L94.3106 9.08339C95.809 8.70068 97.3282 8.32447 98.8642 7.96123Z" fill="#444A56"/>
<path fill-rule="evenodd" clip-rule="evenodd" d="M103.418 6.92989V8.0741C101.932 8.35691 100.413 8.6566 98.8642 8.97574V7.96123C100.367 7.60576 101.884 7.262 103.418 6.92989Z" fill="#444A56"/>
<path fill-rule="evenodd" clip-rule="evenodd" d="M107.888 6.05287V7.25679C106.438 7.51106 104.946 7.7835 103.416 8.0741V6.92989C103.524 6.90653 103.633 6.88186 103.741 6.8585C103.742 6.8598 105.26 6.54585 107.888 6.05287Z" fill="#444A56"/>
<path fill-rule="evenodd" clip-rule="evenodd" d="M110.165 6.8663V5.63384C109.334 5.78433 108.575 5.92444 107.89 6.05287V7.25679C108.66 7.12057 109.419 6.99085 110.165 6.8663Z" fill="#444A56"/>
<path fill-rule="evenodd" clip-rule="evenodd" d="M114.719 4.83466V6.13328C113.267 6.35512 111.745 6.59901 110.165 6.86496V5.63253C111.512 5.38864 113.039 5.12007 114.719 4.83466Z" fill="#444A56"/>
<path fill-rule="evenodd" clip-rule="evenodd" d="M119.271 4.08481V5.46906C117.845 5.66626 116.326 5.88809 114.719 6.13328V4.83466C116.134 4.59466 117.658 4.34168 119.271 4.08481Z" fill="#444A56"/>
<path fill-rule="evenodd" clip-rule="evenodd" d="M123.743 3.39728V4.88272C122.391 5.05008 120.894 5.24468 119.272 5.47041V4.08616C120.695 3.85913 122.19 3.6269 123.743 3.39728Z" fill="#444A56"/>
<path fill-rule="evenodd" clip-rule="evenodd" d="M128.295 2.74735V4.35989C127.057 4.49092 125.525 4.66348 123.741 4.88272V3.39728C125.213 3.17933 126.732 2.96141 128.295 2.74735Z" fill="#444A56"/>
<path fill-rule="evenodd" clip-rule="evenodd" d="M130.572 4.12891V2.44243C129.804 2.54362 129.045 2.64487 128.295 2.74735V4.35989C129.225 4.25999 129.993 4.1834 130.572 4.12891Z" fill="#444A56"/>
<path fill-rule="evenodd" clip-rule="evenodd" d="M132.849 3.97071V2.15056C132.082 2.24656 131.323 2.34383 130.572 2.44243V4.12891C131.419 4.04848 131.873 4.01351 131.873 4.01351C132.201 3.99924 132.524 3.98498 132.849 3.97071Z" fill="#444A56"/>
<path fill-rule="evenodd" clip-rule="evenodd" d="M135.125 3.87601V1.87295C134.36 1.96376 133.601 2.05845 132.849 2.15056V3.9694C133.617 3.93697 134.377 3.90455 135.125 3.87601Z" fill="#444A56"/>
<path fill-rule="evenodd" clip-rule="evenodd" d="M137.32 3.7994V1.61862C136.585 1.70035 135.853 1.78599 135.127 1.87291V3.87597C135.866 3.84873 136.598 3.82275 137.32 3.7994Z" fill="#444A56"/>
<path fill-rule="evenodd" clip-rule="evenodd" d="M139.596 3.73332V1.37221C138.833 1.45264 138.073 1.53437 137.319 1.6187V3.79948C138.09 3.77483 138.85 3.75278 139.596 3.73332Z" fill="#444A56"/>
<path fill-rule="evenodd" clip-rule="evenodd" d="M141.873 3.68273V1.14131C141.111 1.21656 140.352 1.29307 139.596 1.37221V3.73332C140.368 3.71386 141.127 3.697 141.873 3.68273Z" fill="#444A56"/>
<path fill-rule="evenodd" clip-rule="evenodd" d="M144.149 3.64896V0.927205C143.388 0.995963 142.629 1.06737 141.873 1.14131V3.68273C142.646 3.66846 143.404 3.65804 144.149 3.64896Z" fill="#444A56"/>
<path fill-rule="evenodd" clip-rule="evenodd" d="M146.426 3.63082V0.733923C145.666 0.794897 144.907 0.859754 144.149 0.928512V3.65026C144.923 3.63988 145.682 3.63342 146.426 3.63082Z" fill="#444A56"/>
<path fill-rule="evenodd" clip-rule="evenodd" d="M148.703 3.62952V0.55616C147.943 0.611945 147.185 0.670346 146.426 0.732617V3.62952C147.199 3.62692 147.96 3.62692 148.703 3.62952Z" fill="#444A56"/>
<path fill-rule="evenodd" clip-rule="evenodd" d="M150.98 3.64634V0.401756C150.221 0.449757 149.462 0.501673 148.703 0.55616V3.62952C149.478 3.63211 150.238 3.63726 150.98 3.64634Z" fill="#444A56"/>
<path fill-rule="evenodd" clip-rule="evenodd" d="M153.174 3.68011V0.274669C152.443 0.313589 151.712 0.356399 150.98 0.403102V3.64769C151.727 3.65547 152.459 3.66584 153.174 3.68011Z" fill="#444A56"/>
<path fill-rule="evenodd" clip-rule="evenodd" d="M155.45 3.7359V0.163103C154.694 0.195535 153.935 0.233146 153.174 0.273363V3.67881C153.952 3.69567 154.711 3.71514 155.45 3.7359Z" fill="#444A56"/>
<path fill-rule="evenodd" clip-rule="evenodd" d="M157.727 3.81377V0.0813871C156.972 0.104739 156.213 0.131976 155.45 0.164409V3.73724C156.231 3.7593 156.989 3.78523 157.727 3.81377Z" fill="#444A56"/>
<path fill-rule="evenodd" clip-rule="evenodd" d="M160.004 3.91362V0.025564C159.249 0.0385372 158.491 0.056729 157.727 0.0800806V3.81243C158.509 3.84356 159.267 3.8773 160.004 3.91362Z" fill="#444A56"/>
<path fill-rule="evenodd" clip-rule="evenodd" d="M162.281 4.03687V0.000938546C161.527 0.00353317 160.768 0.0125909 160.004 0.025564V3.91362C160.787 3.95124 161.548 3.99276 162.281 4.03687Z" fill="#444A56"/>
<path fill-rule="evenodd" clip-rule="evenodd" d="M164.557 4.18734V0.0112978C163.805 0.000919297 163.046 -0.00165608 162.281 0.000938546V4.03687C163.068 4.08487 163.827 4.13415 164.557 4.18734Z" fill="#444A56"/>
<path fill-rule="evenodd" clip-rule="evenodd" d="M166.834 4.36638V0.0619084C166.083 0.0385568 165.324 0.0216763 164.557 0.0112978V4.18734C165.35 4.24572 166.108 4.30411 166.834 4.36638Z" fill="#444A56"/>
<path fill-rule="evenodd" clip-rule="evenodd" d="M169.028 4.57008V0.150117C168.305 0.113792 167.574 0.0839627 166.834 0.0619084V4.36638C167.602 4.43384 168.335 4.50132 169.028 4.57008Z" fill="#444A56"/>
<path fill-rule="evenodd" clip-rule="evenodd" d="M171.305 4.81783V0.265564C170.372 0.213671 169.841 0.191648 169.841 0.191648C169.572 0.17608 169.3 0.164387 169.028 0.150117V4.57008C169.839 4.65181 170.598 4.73481 171.305 4.81783Z" fill="#444A56"/>
<path fill-rule="evenodd" clip-rule="evenodd" d="M173.582 5.10712V0.403063C172.677 0.344683 171.907 0.296699 171.305 0.265564V4.81783C172.132 4.91384 172.891 5.01242 173.582 5.10712Z" fill="#444A56"/>
<path fill-rule="evenodd" clip-rule="evenodd" d="M175.858 5.44963V0.56396C175.031 0.501689 174.268 0.448468 173.582 0.403063V5.10712C174.448 5.22648 175.207 5.34195 175.858 5.44963Z" fill="#444A56"/>
<path fill-rule="evenodd" clip-rule="evenodd" d="M178.134 5.86604V0.745563C177.333 0.678102 176.572 0.61711 175.857 0.56392V5.44959C176.869 5.61564 177.624 5.75966 178.134 5.86604Z" fill="#444A56"/>
<path fill-rule="evenodd" clip-rule="evenodd" d="M180.411 6.276V0.949218C179.624 0.875271 178.864 0.807834 178.134 0.745563V5.86604C178.68 5.97891 178.947 6.04638 178.947 6.04638C179.44 6.11773 179.928 6.19687 180.411 6.276Z" fill="#444A56"/>
<path fill-rule="evenodd" clip-rule="evenodd" d="M182.687 6.68078V1.17631C181.909 1.09458 181.15 1.01927 180.411 0.949218V6.276C181.184 6.40444 181.943 6.53808 182.687 6.68078Z" fill="#444A56"/>
<path fill-rule="evenodd" clip-rule="evenodd" d="M184.883 7.13615V1.42276C184.142 1.33584 183.408 1.25412 182.689 1.17758V6.68209C183.432 6.82609 184.165 6.97659 184.883 7.13615Z" fill="#444A56"/>
<path fill-rule="evenodd" clip-rule="evenodd" d="M187.159 7.67578V1.70425C186.394 1.60436 185.634 1.51098 184.883 1.42276V7.13615C185.657 7.3074 186.416 7.48767 187.159 7.67578Z" fill="#444A56"/>
<path fill-rule="evenodd" clip-rule="evenodd" d="M189.435 8.2869V2.01829C188.676 1.90802 187.914 1.80162 187.158 1.70303V7.67455C187.935 7.87174 188.695 8.07544 189.435 8.2869Z" fill="#444A56"/>
<path fill-rule="evenodd" clip-rule="evenodd" d="M191.712 8.97836V2.37247C190.956 2.24793 190.196 2.12987 189.435 2.0196V8.28821C190.214 8.51135 190.972 8.74095 191.712 8.97836Z" fill="#444A56"/>
<path fill-rule="evenodd" clip-rule="evenodd" d="M193.988 9.75414V2.77067C193.238 2.63056 192.478 2.4996 191.712 2.37247V8.97836C192.493 9.23003 193.251 9.48819 193.988 9.75414Z" fill="#444A56"/>
<path fill-rule="evenodd" clip-rule="evenodd" d="M196.265 10.6182V3.22609C195.522 3.06652 194.76 2.91467 193.988 2.77067V9.75414C194.772 10.0344 195.531 10.3237 196.265 10.6182Z" fill="#444A56"/>
<path fill-rule="evenodd" clip-rule="evenodd" d="M198.542 11.5781V3.75146C197.806 3.56724 197.045 3.39209 196.265 3.22474V10.6168C197.051 10.9321 197.809 11.2525 198.542 11.5781Z" fill="#444A56"/>
<path fill-rule="evenodd" clip-rule="evenodd" d="M200.817 12.6445V4.37671C200.092 4.15747 199.331 3.94865 198.542 3.75146V11.5781C199.331 11.9284 200.09 12.2851 200.817 12.6445Z" fill="#444A56"/>
<path fill-rule="evenodd" clip-rule="evenodd" d="M203.012 13.7822V5.07339C202.648 4.96442 202.444 4.90731 202.444 4.90731C201.927 4.72309 201.384 4.54665 200.817 4.37541V12.6432C201.584 13.022 202.316 13.4021 203.012 13.7822Z" fill="#444A56"/>
<path fill-rule="evenodd" clip-rule="evenodd" d="M205.289 15.0913V5.82067C204.292 5.4691 203.504 5.22258 203.012 5.07339V13.7822C203.817 14.222 204.574 14.658 205.289 15.0913Z" fill="#444A56"/>
<path fill-rule="evenodd" clip-rule="evenodd" d="M207.566 16.5494V6.67425C206.728 6.34214 205.963 6.05808 205.289 5.82067V15.0913C206.105 15.5868 206.865 16.0746 207.566 16.5494Z" fill="#444A56"/>
<path fill-rule="evenodd" clip-rule="evenodd" d="M209.843 18.1906V7.63045C209.045 7.27628 208.281 6.95845 207.566 6.67563V16.5508C208.405 17.1203 209.163 17.6704 209.843 18.1906Z" fill="#444A56"/>
<path fill-rule="evenodd" clip-rule="evenodd" d="M212.12 20.0587V8.6994C211.34 8.3128 210.578 7.95606 209.843 7.62914V18.1892C210.735 18.8742 211.494 19.506 212.12 20.0587Z" fill="#444A56"/>
<path fill-rule="evenodd" clip-rule="evenodd" d="M214.396 22.3069V9.9007C213.63 9.47259 212.868 9.07303 212.119 8.7007V20.06C213.661 21.4248 214.396 22.3069 214.396 22.3069Z" fill="#444A56"/>
<path fill-rule="evenodd" clip-rule="evenodd" d="M216.672 24.8523V11.2629C215.918 10.779 215.155 10.3262 214.396 9.9007V22.3056C215.247 23.1424 216.002 23.9934 216.672 24.8523Z" fill="#444A56"/>
<path fill-rule="evenodd" clip-rule="evenodd" d="M218.867 28.2383V12.7756C218.151 12.2424 217.416 11.739 216.672 11.2629V24.8523C217.542 25.9705 218.268 27.1044 218.867 28.2383Z" fill="#444A56"/>
<path fill-rule="evenodd" clip-rule="evenodd" d="M221.144 46.6601V42.606C220.612 46.1969 219.517 48.5684 219.517 48.5684C220.095 47.9236 220.638 47.288 221.144 46.6601ZM221.144 35.1036V14.6346C220.417 13.9808 219.656 13.3607 218.867 12.7756V28.2383C220.095 30.5643 220.796 32.8943 221.144 35.1036Z" fill="#444A56"/>
<path fill-rule="evenodd" clip-rule="evenodd" d="M223.42 43.5258V16.962C222.722 16.1421 221.957 15.3676 221.144 14.6346V35.1036C221.58 37.8772 221.462 40.4589 221.144 42.606V46.6601C222 45.5937 222.755 44.5468 223.42 43.5258Z" fill="#444A56"/>
<path fill-rule="evenodd" clip-rule="evenodd" d="M225.697 39.4158V20.2701C225.072 19.096 224.3 17.9947 223.42 16.962V43.5258C224.343 42.1065 225.093 40.7339 225.697 39.4158Z" fill="#444A56"/>
<path fill-rule="evenodd" clip-rule="evenodd" d="M227.973 30.5332V28.4367C227.811 25.3958 226.996 23.6068 226.996 23.6068C226.701 22.4353 226.258 21.3235 225.696 20.2688V39.4146C227.253 36.0221 227.846 33.002 227.973 30.5332Z" fill="#444A56"/>
<path fill-rule="evenodd" clip-rule="evenodd" d="M227.973 30.5332V28.4368C228.006 29.0828 228.012 29.7821 227.973 30.5332Z" fill="#444A56"/>
<path fill-rule="evenodd" clip-rule="evenodd" d="M110.491 68.4056C110.165 69.2191 109.597 69.5434 108.702 69.5434C108.134 69.5434 107.726 69.3812 107.401 68.9752C107.076 68.5678 106.913 67.9191 106.913 67.1057C106.913 66.4545 106.995 65.885 107.157 65.3985C107.481 64.6668 108.051 64.2607 108.864 64.2607C109.432 64.2607 109.921 64.4229 110.246 64.9094C110.652 65.3167 110.814 65.968 110.814 66.8605C110.815 67.4301 110.735 67.9996 110.491 68.4056ZM106.507 64.179C105.937 64.8277 105.613 65.8032 105.613 67.024C105.613 68.2422 105.937 69.2177 106.507 69.7068C107.075 70.2751 107.807 70.6007 108.538 70.6007C109.108 70.6007 109.596 70.5177 109.921 70.2738C110.246 70.1116 110.571 69.8677 110.815 69.4603C110.815 70.4359 110.733 71.1676 110.571 71.5763C110.247 72.2249 109.677 72.5518 108.702 72.5518C108.134 72.5518 107.726 72.3871 107.401 72.1445C107.238 71.9006 107.157 71.658 107.076 71.3311H105.857C105.939 72.1445 106.181 72.6336 106.751 72.9579C107.238 73.364 107.888 73.5274 108.702 73.5274C110.083 73.5274 111.059 73.0383 111.547 72.0628C111.791 71.4932 111.953 70.8446 111.953 69.869V63.3643H110.815V64.2581C110.571 64.013 110.327 63.769 110.165 63.6069C109.677 63.2826 109.19 63.2008 108.621 63.2008C107.807 63.2034 107.076 63.5278 106.507 64.179Z" fill="#444A56"/>
<path fill-rule="evenodd" clip-rule="evenodd" d="M130.816 70.5176V63.2838H131.955V64.5837C132.036 64.3398 132.279 64.0142 132.605 63.6899C133.011 63.2838 133.418 63.1204 133.906 63.1204H133.988C134.069 63.1204 134.15 63.2034 134.313 63.2034V64.4216C134.232 64.4216 134.15 64.4216 134.069 64.4216C133.989 64.4216 133.988 64.4216 133.907 64.4216C133.257 64.4216 132.851 64.5837 132.526 64.9898C132.2 65.3972 132.038 65.8836 132.038 66.3727V70.5176H130.816Z" fill="#444A56"/>
<path fill-rule="evenodd" clip-rule="evenodd" d="M153.581 68.9752C153.257 68.4056 153.093 67.7544 153.093 67.024C153.093 66.2106 153.257 65.5593 153.581 64.9898C153.907 64.4216 154.475 64.179 155.208 64.179C156.021 64.179 156.589 64.5033 156.914 65.1546C157.158 65.5606 157.239 66.1302 157.239 66.7788C157.239 67.5105 157.158 68.1617 156.833 68.813C156.508 69.3812 156.021 69.7068 155.208 69.7068C154.475 69.7068 153.907 69.4616 153.581 68.9752ZM152.768 64.179C152.118 64.9094 151.875 65.8837 151.875 67.024C151.875 68.1617 152.119 69.0556 152.687 69.7068C153.338 70.4372 154.069 70.7628 155.044 70.7628C156.264 70.7628 157.159 70.3555 157.727 69.6225C158.215 68.8921 158.541 67.9178 158.541 66.7775C158.541 65.5593 158.215 64.6642 157.565 64.0129C156.914 63.4447 156.183 63.1191 155.208 63.1191C154.232 63.1191 153.337 63.446 152.768 64.179Z" fill="#444A56"/>
<path fill-rule="evenodd" clip-rule="evenodd" d="M176.914 63.2838H178.216V68.08C178.216 68.4043 178.216 68.7286 178.378 68.9738C178.541 69.3799 178.947 69.6225 179.517 69.6225C180.411 69.6225 180.98 69.2164 181.305 68.4848C181.468 68.0787 181.548 67.5092 181.548 66.8579V63.2825H182.687V70.5163H181.548L181.63 69.4603C181.468 69.7055 181.224 69.9494 180.98 70.1116C180.574 70.5177 180.005 70.6811 179.353 70.6811C178.297 70.6811 177.647 70.3542 177.24 69.6225C177.078 69.2982 176.914 68.8117 176.914 68.1604V63.2838Z" fill="#444A56"/>
<path fill-rule="evenodd" clip-rule="evenodd" d="M202.932 68.5678C202.77 68.1617 202.688 67.6739 202.688 67.1057C202.688 66.4544 202.77 65.8849 202.932 65.4789C203.258 64.585 203.826 64.179 204.639 64.179C205.451 64.179 206.021 64.585 206.345 65.3972C206.509 65.8032 206.589 66.291 206.589 66.8592C206.589 67.753 206.426 68.486 206.021 68.9751C205.695 69.4616 205.207 69.7068 204.639 69.7068C203.826 69.7068 203.258 69.2995 202.932 68.5678ZM202.77 73.3639V69.7081C203.014 70.0324 203.258 70.1946 203.42 70.3568C203.826 70.602 204.233 70.6837 204.801 70.6837C205.532 70.6837 206.103 70.5189 206.59 70.1142C207.403 69.3825 207.81 68.3252 207.81 66.6983C207.81 65.5606 207.566 64.6668 206.996 64.0985C206.427 63.4473 205.695 63.1204 204.882 63.1204C204.394 63.1204 203.906 63.2851 203.5 63.5277C203.176 63.6899 202.932 63.9338 202.687 64.2594V63.3655H201.549V73.3639H202.77Z" fill="#444A56"/>
</svg>
