<svg width="271" height="57" viewBox="0 0 271 57" fill="none" xmlns="http://www.w3.org/2000/svg">
<path d="M196.077 34.0906C196.077 36.681 194.169 38.3161 190.491 38.3161C189.262 38.3161 188.168 38.1801 187.489 38.1801V30.137H189.945C193.625 30.137 196.077 31.2283 196.077 34.0906ZM195.532 21.9561C195.532 24.5465 193.625 26.0456 189.671 26.0456H187.489V18.5463C188.442 18.5463 189.533 18.4085 190.761 18.4085C194.308 18.4085 195.532 19.9113 195.532 21.9561ZM202.078 33.951C202.078 31.0905 200.308 28.2282 196.897 27.5466V27.4088C199.625 26.4553 201.532 23.8631 201.532 21.1367C201.532 16.5015 197.986 14.0452 191.716 14.0452C188.034 14.0452 184.217 14.0452 181.762 14.1812V42.6794C185.446 42.6794 188.582 42.8153 190.351 42.8153C199.215 42.8153 202.078 38.0442 202.078 33.951Z" fill="#444A56"/>
<path d="M217.079 33.9536C217.079 36.408 215.167 38.9984 212.444 38.9984C210.941 38.9984 209.99 38.1809 209.99 36.8159C209.99 35.0449 211.215 33.4079 217.079 33.4079V33.9536ZM222.806 42.6801C222.67 41.0432 222.67 38.9984 222.67 37.3615V28.5009C222.67 24.0016 220.623 21.2753 213.807 21.2753C210.941 21.2753 208.213 21.8191 206.034 22.5007L206.578 27.1358C208.351 26.0446 210.941 25.4989 212.852 25.4989C215.986 25.4989 217.079 26.592 217.079 28.7728V29.864C209.716 29.864 204.669 32.5904 204.669 37.6353C204.669 41.0432 206.852 43.0898 210.805 43.0898C214.077 43.0898 216.67 41.4511 217.759 39.1344C217.625 40.2275 217.489 41.4511 217.489 42.6801H222.806Z" fill="#444A56"/>
<path d="M246.531 42.6795V27.9546C246.531 24.271 245.028 21.2746 240.121 21.2746C236.575 21.2746 234.121 23.0475 232.758 25.4983C233.031 24.271 233.031 22.6378 233.031 21.6806H227.85V42.6795H233.303V32.5897C233.303 28.9081 235.624 25.772 238.348 25.772C240.391 25.772 241.076 27.137 241.076 29.3196V42.6795H246.531Z" fill="#444A56"/>
<path d="M270.801 42.6795L262.758 31.3607L270.257 21.6806H263.438L257.168 30.4072V11.8665H251.711V42.6795H257.168V32.3197L263.848 42.6795H270.801Z" fill="#444A56"/>
<path d="M86.4465 28.5C86.4465 34.9099 82.4947 37.2284 79.0868 37.2284C74.1797 37.2284 71.9971 33.8186 71.9971 28.2262C71.9971 22.362 75.5429 19.6356 79.2209 19.6356C83.8579 19.6356 86.4465 22.6376 86.4465 28.5ZM93.9495 27.9543C93.9495 17.9987 87.8097 13.6354 79.7665 13.6354C71.3137 13.6354 64.4941 19.4978 64.4941 28.7719C64.4941 37.7722 69.1293 43.2267 78.6771 43.2267C87.1299 43.2267 93.9495 37.3606 93.9495 27.9543Z" fill="#444A56"/>
<path d="M118.903 41.9992L118.084 36.135C116.585 36.6806 114.264 37.0885 112.629 37.0885C107.039 37.0885 104.584 33.9524 104.584 28.3656C104.584 23.183 107.313 19.911 112.359 19.911C114.264 19.911 116.175 20.181 117.95 20.7267L118.764 14.7265C116.857 14.1827 114.542 14.0449 112.493 14.0449C102.268 14.0449 96.8113 20.181 96.8113 29.4532C96.8113 35.999 99.9492 43.0905 111.266 43.0905C113.858 43.0905 116.585 42.679 118.903 41.9992Z" fill="#444A56"/>
<path d="M138.403 33.9516C138.403 36.1341 136.63 37.4973 133.492 37.4973C132.402 37.4973 131.309 37.3632 130.765 37.3632V30.5455H133.082C136.356 30.5455 138.403 31.6349 138.403 33.9516ZM137.993 22.2268C137.993 24.4112 136.22 25.6366 132.808 25.6366H130.765V19.3626H133.628C136.63 19.3626 137.993 20.4539 137.993 22.2268ZM146.038 33.8156C146.038 30.9552 144.129 28.227 140.991 27.5454V27.4094C143.719 26.3163 145.492 23.8618 145.492 21.2733C145.492 16.5003 141.537 14.044 134.857 14.044C131.039 14.044 126.402 14.044 123.536 14.1818V42.68C128.037 42.68 131.445 42.8159 133.358 42.8159C142.354 42.8159 146.038 38.3167 146.038 33.8156Z" fill="#444A56"/>
<path d="M171.127 41.9992L170.307 36.135C168.808 36.6806 166.49 37.0885 164.991 37.0885C159.4 37.0885 156.947 33.9524 156.947 28.3656C156.947 23.183 159.672 19.911 164.581 19.911C166.49 19.911 168.399 20.181 170.173 20.7267L170.991 14.7265C169.078 14.1827 166.899 14.0449 164.717 14.0449C154.491 14.0449 149.038 20.181 149.038 29.4532C149.038 35.999 152.173 43.0905 163.49 43.0905C166.22 43.0905 168.944 42.679 171.127 41.9992Z" fill="#444A56"/>
<path d="M35.0422 41.182C35.9993 40.6363 36.951 39.9529 37.7704 39.2695C38.3142 38.8635 38.8598 38.316 39.2732 37.7704C41.452 35.1799 42.8152 32.0457 42.8152 28.4982C42.8152 20.5892 36.4053 14.1811 28.4963 14.1811C26.8631 14.1811 25.2243 14.4548 23.8611 14.9986L13.9092 3.95542C18.1384 1.50097 23.1814 0 28.4963 0C44.3144 0 56.9945 12.682 56.9945 28.4982C56.9945 44.1821 44.3144 57 28.4963 57C20.7269 57 13.6336 53.8603 8.45281 48.6813H43.3645L43.6309 48.4076L6.8159 46.9103L6.54399 46.6347H45.5434L45.6794 46.3628L4.91075 44.4521L4.77113 44.318H20.5891C20.5891 44.318 28.636 44.5881 35.0422 41.182ZM2.59224 40.4986C2.45262 39.9529 2.17888 39.4091 1.90882 38.8635H10.4976L12.0004 40.4986H24.6805L21.9523 43.3627H6.27393C5.86424 41.8617 4.36144 40.6363 2.59224 40.4986ZM1.63508 37.9081C0.545638 34.9099 0 31.7702 0 28.4982C0 26.5912 0.139623 24.8202 0.545637 23.0454L14.3189 27.9562V28.4982C14.3189 31.7702 15.4083 34.9099 17.4549 37.3625H17.5909C16.3618 35.1799 15.6821 32.7292 15.6821 30.1369C15.6821 29.5931 15.6821 29.0438 15.818 28.4982L30.5448 33.6808V37.9081H1.63508ZM30.5448 28.2281L19.2241 20.7269C20.5892 19.09 22.362 17.8646 24.4105 17.0453L30.5448 23.1814V28.2281ZM30.5448 33.137L15.9558 27.5465C16.3618 25.3621 17.3208 23.1814 18.6803 21.4085L30.5448 28.9097V33.137ZM14.3189 26.999L0.819376 21.8182C1.63508 18.5462 2.86231 15.548 4.63518 12.8179L16.7715 20.3173C15.4083 22.2279 14.589 24.5446 14.3189 26.999ZM17.4549 19.4997L5.5905 11.5925C7.49932 8.99846 9.81783 6.68362 12.5442 4.91075L22.7717 15.4102C20.7269 16.3637 18.8163 17.7287 17.4549 19.4997Z" fill="#444A56"/>
</svg>
