<svg width="1072" height="122" viewBox="0 0 1072 122" fill="none" xmlns="http://www.w3.org/2000/svg">
<rect width="1072" height="122" fill="white"/>
<path d="M310.346 31.032C309.898 35.576 309.674 39.672 309.674 43.32C309.674 46.52 309.77 49.144 309.962 51.192H307.754C307.242 46.264 306.602 42.616 305.834 40.248C305.066 37.816 303.722 36.056 301.802 34.968C299.882 33.816 296.938 33.24 292.97 33.24H290.762C288.458 33.24 286.762 33.432 285.674 33.816C284.65 34.136 283.946 34.84 283.562 35.928C283.178 37.016 282.986 38.776 282.986 41.208V88.824C282.986 91.256 283.242 93.016 283.754 94.104C284.266 95.192 285.162 95.928 286.442 96.312C287.722 96.696 289.802 96.952 292.682 97.08V99C289.354 98.808 284.65 98.712 278.57 98.712C273.066 98.712 268.97 98.808 266.282 99V97.08C268.586 96.952 270.25 96.696 271.274 96.312C272.362 95.928 273.098 95.192 273.482 94.104C273.866 93.016 274.058 91.256 274.058 88.824V41.208C274.058 38.776 273.866 37.016 273.482 35.928C273.098 34.84 272.362 34.104 271.274 33.72C270.25 33.336 268.586 33.08 266.282 32.952V31.032C272.554 31.224 281.834 31.32 294.122 31.32C301.738 31.32 307.146 31.224 310.346 31.032ZM370.281 51.672C367.593 51.672 365.705 52.184 364.617 53.208C363.529 54.168 362.985 55.96 362.985 58.584V90.072C362.985 92.696 363.529 94.52 364.617 95.544C365.705 96.504 367.593 96.984 370.281 96.984V99C364.393 98.744 360.553 98.616 358.761 98.616C356.969 98.616 353.385 98.744 348.009 99V96.984C350.377 96.984 352.009 96.504 352.905 95.544C353.865 94.52 354.345 92.696 354.345 90.072V60.888L331.785 92.088C331.977 93.88 332.553 95.16 333.513 95.928C334.473 96.632 335.977 96.984 338.025 96.984V99C332.649 98.744 329.065 98.616 327.273 98.616C325.481 98.616 321.641 98.744 315.753 99V96.984C318.441 96.984 320.329 96.504 321.417 95.544C322.505 94.52 323.049 92.696 323.049 90.072V58.584C323.049 55.96 322.505 54.168 321.417 53.208C320.329 52.184 318.441 51.672 315.753 51.672V49.656C321.641 49.912 325.481 50.04 327.273 50.04C329.065 50.04 332.649 49.912 338.025 49.656V51.672C335.657 51.672 333.993 52.184 333.033 53.208C332.137 54.168 331.689 55.96 331.689 58.584V88.92L354.345 57.72C354.281 55.416 353.769 53.848 352.809 53.016C351.849 52.12 350.249 51.672 348.009 51.672V49.656C353.385 49.912 356.969 50.04 358.761 50.04C360.553 50.04 364.393 49.912 370.281 49.656V51.672ZM423.175 49.656C422.727 53.88 422.503 57.592 422.503 60.792C422.503 63.288 422.599 65.272 422.791 66.744H420.583C420.263 62.456 419.591 59.224 418.567 57.048C417.607 54.872 416.263 53.432 414.535 52.728C412.871 51.96 410.599 51.576 407.719 51.576H403.975V89.112C403.975 92.056 404.807 94.104 406.471 95.256C408.199 96.408 410.759 96.984 414.151 96.984V99L411.751 98.904C405.415 98.712 401.383 98.616 399.655 98.616C397.927 98.616 393.895 98.712 387.559 98.904L385.159 99V96.984C388.551 96.984 391.079 96.408 392.743 95.256C394.471 94.104 395.335 92.056 395.335 89.112V51.576H390.631C387.815 51.576 385.639 51.96 384.103 52.728C382.567 53.432 381.351 54.872 380.455 57.048C379.623 59.224 379.047 62.488 378.727 66.84H376.519C376.711 65.368 376.807 63.384 376.807 60.888C376.807 57.688 376.583 53.976 376.135 49.752H385.351C388.295 49.752 390.535 49.784 392.071 49.848L399.559 49.944C401.287 49.944 403.815 49.88 407.143 49.752L413.959 49.656H423.175ZM441.867 99.672C437.835 99.672 434.827 98.68 432.843 96.696C430.923 94.648 429.963 91.832 429.963 88.248C429.963 85.368 430.731 83 432.267 81.144C433.867 79.288 435.723 77.816 437.835 76.728C440.011 75.64 442.859 74.488 446.379 73.272C449.963 72.056 452.619 70.936 454.347 69.912C456.075 68.888 456.939 67.512 456.939 65.784V59.832C456.939 56.12 456.139 53.592 454.539 52.248C453.003 50.84 450.827 50.136 448.011 50.136C443.531 50.136 440.363 51.288 438.507 53.592C439.787 53.912 440.843 54.584 441.675 55.608C442.571 56.632 443.019 57.912 443.019 59.448C443.019 61.048 442.507 62.328 441.483 63.288C440.459 64.184 439.147 64.632 437.547 64.632C435.755 64.632 434.411 64.088 433.515 63C432.619 61.848 432.171 60.472 432.171 58.872C432.171 57.336 432.523 56.056 433.227 55.032C433.995 54.008 435.115 52.984 436.587 51.96C438.123 50.872 440.075 49.976 442.443 49.272C444.811 48.568 447.403 48.216 450.219 48.216C455.211 48.216 458.987 49.4 461.547 51.768C463.147 53.24 464.203 55.032 464.715 57.144C465.291 59.192 465.579 61.912 465.579 65.304V91.992C465.579 93.592 465.803 94.744 466.251 95.448C466.699 96.152 467.467 96.504 468.555 96.504C469.323 96.504 470.027 96.344 470.667 96.024C471.371 95.64 472.107 95.128 472.875 94.488L473.931 96.12C472.267 97.4 470.827 98.328 469.611 98.904C468.459 99.416 466.987 99.672 465.195 99.672C462.123 99.672 459.979 98.904 458.763 97.368C457.547 95.832 456.939 93.752 456.939 91.128C455.019 94.328 452.811 96.568 450.315 97.848C447.819 99.064 445.003 99.672 441.867 99.672ZM446.091 95.832C450.315 95.832 453.931 93.4 456.939 88.536V69.72C456.363 70.616 455.563 71.352 454.539 71.928C453.515 72.504 451.947 73.272 449.835 74.232C447.403 75.256 445.419 76.248 443.883 77.208C442.411 78.104 441.131 79.352 440.043 80.952C438.955 82.552 438.411 84.6 438.411 87.096C438.411 89.976 439.115 92.152 440.523 93.624C441.931 95.096 443.787 95.832 446.091 95.832ZM507.439 48.216C510.831 48.216 513.871 49.144 516.559 51C519.311 52.856 521.455 55.576 522.991 59.16C524.527 62.744 525.295 67.032 525.295 72.024C525.295 76.952 524.495 81.56 522.895 85.848C521.359 90.136 518.927 93.624 515.599 96.312C512.335 99 508.239 100.344 503.311 100.344C500.879 100.344 498.671 99.864 496.687 98.904C494.703 97.944 493.167 96.696 492.079 95.16V107.448C492.079 110.072 492.847 111.864 494.383 112.824C495.919 113.848 498.223 114.36 501.295 114.36V116.376L499.087 116.28C493.135 116.088 489.263 115.992 487.471 115.992C485.935 115.992 482.479 116.12 477.103 116.376V114.36C479.471 114.36 481.103 113.912 481.999 113.016C482.959 112.184 483.439 110.648 483.439 108.408V60.024C483.439 57.08 482.895 54.936 481.807 53.592C480.719 52.248 478.831 51.576 476.143 51.576V49.56C478.127 49.752 480.111 49.848 482.095 49.848C486.127 49.848 489.455 49.4 492.079 48.504V58.68C493.487 55.352 495.535 52.792 498.223 51C500.911 49.144 503.983 48.216 507.439 48.216ZM502.255 98.136C511.407 98.136 515.983 89.88 515.983 73.368C515.983 58.52 512.271 51.096 504.847 51.096C501.967 51.096 499.375 52.152 497.071 54.264C494.767 56.312 493.103 59.288 492.079 63.192V91.992C492.975 93.848 494.287 95.352 496.015 96.504C497.743 97.592 499.823 98.136 502.255 98.136ZM585.685 51.672C582.997 51.672 581.109 52.184 580.021 53.208C578.933 54.168 578.389 55.96 578.389 58.584V90.072C578.389 92.696 578.933 94.52 580.021 95.544C581.109 96.504 582.997 96.984 585.685 96.984V99C579.797 98.744 575.957 98.616 574.165 98.616C572.373 98.616 568.789 98.744 563.413 99V96.984C565.781 96.984 567.413 96.504 568.309 95.544C569.269 94.52 569.749 92.696 569.749 90.072V74.52H548.533V90.072C548.533 92.696 548.981 94.52 549.877 95.544C550.837 96.504 552.501 96.984 554.869 96.984V99C549.493 98.744 545.909 98.616 544.117 98.616C542.325 98.616 538.485 98.744 532.597 99V96.984C535.285 96.984 537.173 96.504 538.261 95.544C539.349 94.52 539.893 92.696 539.893 90.072V58.584C539.893 55.96 539.349 54.168 538.261 53.208C537.173 52.184 535.285 51.672 532.597 51.672V49.656C538.485 49.912 542.325 50.04 544.117 50.04C545.909 50.04 549.493 49.912 554.869 49.656V51.672C552.501 51.672 550.837 52.184 549.877 53.208C548.981 54.168 548.533 55.96 548.533 58.584V72.6H569.749V58.584C569.749 55.96 569.269 54.168 568.309 53.208C567.413 52.184 565.781 51.672 563.413 51.672V49.656C568.789 49.912 572.373 50.04 574.165 50.04C575.957 50.04 579.797 49.912 585.685 49.656V51.672ZM613.652 70.2C620.308 70.2 625.172 71.448 628.244 73.944C631.38 76.376 632.948 79.704 632.948 83.928C632.948 86.488 632.244 88.92 630.836 91.224C629.428 93.464 627.156 95.32 624.02 96.792C620.948 98.264 617.012 99 612.212 99C611.508 99 610.068 98.936 607.892 98.808C605.588 98.68 603.764 98.616 602.42 98.616C600.756 98.616 596.98 98.744 591.092 99V96.984C593.78 96.984 595.668 96.504 596.756 95.544C597.844 94.52 598.388 92.696 598.388 90.072V58.584C598.388 55.96 597.908 54.168 596.948 53.208C596.052 52.184 594.42 51.672 592.052 51.672V49.656C597.428 49.912 601.012 50.04 602.804 50.04C604.596 50.04 608.436 49.912 614.324 49.656V51.672C611.636 51.672 609.748 52.184 608.66 53.208C607.572 54.168 607.028 55.96 607.028 58.584V70.2H613.652ZM651.38 90.072C651.38 92.696 651.924 94.52 653.012 95.544C654.1 96.504 655.988 96.984 658.676 96.984V99C652.788 98.744 648.884 98.616 646.964 98.616C645.3 98.616 641.78 98.744 636.404 99V96.984C638.772 96.984 640.404 96.504 641.3 95.544C642.26 94.52 642.74 92.696 642.74 90.072V58.584C642.74 55.96 642.26 54.168 641.3 53.208C640.404 52.184 638.772 51.672 636.404 51.672V49.656C641.78 49.912 645.3 50.04 646.964 50.04C648.756 50.04 652.34 49.912 657.716 49.656V51.672C655.348 51.672 653.684 52.184 652.724 53.208C651.828 54.168 651.38 55.96 651.38 58.584V90.072ZM611.156 96.984C615.892 96.984 619.188 95.864 621.044 93.624C622.964 91.32 623.924 88.28 623.924 84.504C623.924 80.088 622.676 76.888 620.18 74.904C617.684 72.856 613.62 71.832 607.988 71.832H607.028V90.072C607.028 92.632 607.316 94.424 607.892 95.448C608.532 96.472 609.62 96.984 611.156 96.984ZM718.562 51.672C715.874 51.672 713.986 52.184 712.898 53.208C711.81 54.168 711.266 55.96 711.266 58.584V90.072C711.266 92.696 711.81 94.52 712.898 95.544C713.986 96.504 715.874 96.984 718.562 96.984V99C712.674 98.744 708.834 98.616 707.042 98.616C705.25 98.616 701.666 98.744 696.29 99V96.984C698.658 96.984 700.29 96.504 701.186 95.544C702.146 94.52 702.626 92.696 702.626 90.072V60.888L680.066 92.088C680.258 93.88 680.834 95.16 681.794 95.928C682.754 96.632 684.258 96.984 686.306 96.984V99C680.93 98.744 677.346 98.616 675.554 98.616C673.762 98.616 669.922 98.744 664.034 99V96.984C666.722 96.984 668.61 96.504 669.698 95.544C670.786 94.52 671.33 92.696 671.33 90.072V58.584C671.33 55.96 670.786 54.168 669.698 53.208C668.61 52.184 666.722 51.672 664.034 51.672V49.656C669.922 49.912 673.762 50.04 675.554 50.04C677.346 50.04 680.93 49.912 686.306 49.656V51.672C683.938 51.672 682.274 52.184 681.314 53.208C680.418 54.168 679.97 55.96 679.97 58.584V88.92L702.626 57.72C702.562 55.416 702.05 53.848 701.09 53.016C700.13 52.12 698.53 51.672 696.29 51.672V49.656C701.666 49.912 705.25 50.04 707.042 50.04C708.834 50.04 712.674 49.912 718.562 49.656V51.672ZM703.682 22.776C705.154 22.776 706.37 23.256 707.33 24.216C708.29 25.176 708.77 26.392 708.77 27.864C708.77 30.424 707.266 32.728 704.258 34.776C700.866 37.08 696.482 38.232 691.106 38.232C685.73 38.232 681.346 37.08 677.954 34.776C674.946 32.728 673.442 30.424 673.442 27.864C673.442 26.392 673.922 25.176 674.882 24.216C675.842 23.256 677.058 22.776 678.53 22.776C680.002 22.776 681.25 23.256 682.274 24.216C683.298 25.112 683.81 26.36 683.81 27.96C683.81 29.304 683.426 30.392 682.658 31.224C681.954 32.056 680.994 32.6 679.778 32.856C680.93 34.136 682.562 35.032 684.674 35.544C686.786 36.056 688.93 36.312 691.106 36.312C693.282 36.312 695.426 36.056 697.538 35.544C699.65 35.032 701.282 34.136 702.434 32.856C701.218 32.6 700.226 32.056 699.458 31.224C698.754 30.392 698.402 29.304 698.402 27.96C698.402 26.36 698.914 25.112 699.938 24.216C700.962 23.256 702.21 22.776 703.682 22.776ZM824.834 32.952C822.53 33.08 820.834 33.336 819.746 33.72C818.722 34.104 818.018 34.84 817.634 35.928C817.25 37.016 817.058 38.776 817.058 41.208V88.824C817.058 91.256 817.25 93.016 817.634 94.104C818.018 95.192 818.722 95.928 819.746 96.312C820.834 96.696 822.53 96.952 824.834 97.08V99C821.89 98.808 817.826 98.712 812.642 98.712C807.138 98.712 803.042 98.808 800.354 99V97.08C802.658 96.952 804.322 96.696 805.346 96.312C806.434 95.928 807.17 95.192 807.554 94.104C807.938 93.016 808.13 91.256 808.13 88.824V37.368L784.994 99.48H783.458L759.266 37.176V87.864C759.266 90.36 759.458 92.216 759.842 93.432C760.29 94.648 761.122 95.544 762.338 96.12C763.554 96.632 765.442 96.952 768.002 97.08V99C765.698 98.808 762.434 98.712 758.21 98.712C754.37 98.712 751.394 98.808 749.282 99V97.08C751.522 96.952 753.186 96.632 754.274 96.12C755.362 95.544 756.098 94.648 756.482 93.432C756.866 92.152 757.058 90.296 757.058 87.864V41.208C757.058 38.776 756.866 37.016 756.482 35.928C756.098 34.84 755.362 34.104 754.274 33.72C753.25 33.336 751.586 33.08 749.282 32.952V31.032C751.394 31.224 754.37 31.32 758.21 31.32C761.538 31.32 764.258 31.224 766.37 31.032L787.49 86.616L808.13 31.32H812.642C817.826 31.32 821.89 31.224 824.834 31.032V32.952ZM886.187 51.672C883.499 51.672 881.611 52.184 880.523 53.208C879.435 54.168 878.891 55.96 878.891 58.584V90.072C878.891 92.696 879.435 94.52 880.523 95.544C881.611 96.504 883.499 96.984 886.187 96.984V99C880.299 98.744 876.459 98.616 874.667 98.616C872.875 98.616 869.291 98.744 863.915 99V96.984C866.283 96.984 867.915 96.504 868.811 95.544C869.771 94.52 870.251 92.696 870.251 90.072V60.888L847.691 92.088C847.883 93.88 848.459 95.16 849.419 95.928C850.379 96.632 851.883 96.984 853.931 96.984V99C848.555 98.744 844.971 98.616 843.179 98.616C841.387 98.616 837.547 98.744 831.659 99V96.984C834.347 96.984 836.235 96.504 837.323 95.544C838.411 94.52 838.955 92.696 838.955 90.072V58.584C838.955 55.96 838.411 54.168 837.323 53.208C836.235 52.184 834.347 51.672 831.659 51.672V49.656C837.547 49.912 841.387 50.04 843.179 50.04C844.971 50.04 848.555 49.912 853.931 49.656V51.672C851.563 51.672 849.899 52.184 848.939 53.208C848.043 54.168 847.595 55.96 847.595 58.584V88.92L870.251 57.72C870.187 55.416 869.675 53.848 868.715 53.016C867.755 52.12 866.155 51.672 863.915 51.672V49.656C869.291 49.912 872.875 50.04 874.667 50.04C876.459 50.04 880.299 49.912 886.187 49.656V51.672ZM922.377 48.216C925.769 48.216 928.809 49.144 931.497 51C934.249 52.856 936.393 55.576 937.929 59.16C939.465 62.744 940.233 67.032 940.233 72.024C940.233 76.952 939.433 81.56 937.833 85.848C936.297 90.136 933.865 93.624 930.537 96.312C927.273 99 923.177 100.344 918.249 100.344C915.817 100.344 913.609 99.864 911.625 98.904C909.641 97.944 908.105 96.696 907.017 95.16V107.448C907.017 110.072 907.785 111.864 909.321 112.824C910.857 113.848 913.161 114.36 916.233 114.36V116.376L914.025 116.28C908.073 116.088 904.201 115.992 902.409 115.992C900.873 115.992 897.417 116.12 892.041 116.376V114.36C894.409 114.36 896.041 113.912 896.937 113.016C897.897 112.184 898.377 110.648 898.377 108.408V60.024C898.377 57.08 897.833 54.936 896.745 53.592C895.657 52.248 893.769 51.576 891.081 51.576V49.56C893.065 49.752 895.049 49.848 897.033 49.848C901.065 49.848 904.393 49.4 907.017 48.504V58.68C908.425 55.352 910.473 52.792 913.161 51C915.849 49.144 918.921 48.216 922.377 48.216ZM917.193 98.136C926.345 98.136 930.921 89.88 930.921 73.368C930.921 58.52 927.209 51.096 919.785 51.096C916.905 51.096 914.313 52.152 912.009 54.264C909.705 56.312 908.041 59.288 907.017 63.192V91.992C907.913 93.848 909.225 95.352 910.953 96.504C912.681 97.592 914.761 98.136 917.193 98.136Z" fill="black"/>
<g clip-path="url(#clip0)">
<path d="M236.4 26.4478L235.154 25.2023L235.439 24.8998C237.52 22.8089 237.52 19.429 235.439 17.3382L227.895 9.79475C225.811 7.71311 222.435 7.71311 220.351 9.79475L220.049 10.0973L218.786 8.83399C218.094 8.14116 216.972 8.14011 216.28 8.83149C216.279 8.83232 216.278 8.83316 216.277 8.83399C215.583 9.53329 215.583 10.6613 216.277 11.3604L217.54 12.6057L215.014 15.1321L213.751 13.8688C213.058 13.1759 211.935 13.1759 211.242 13.8688C210.549 14.5616 210.549 15.6846 211.242 16.3774L212.505 17.6407C210.711 19.438 210.013 22.0561 210.673 24.5084L206.474 28.7253L206.349 28.8497L206.26 28.9319C206.245 28.9461 206.224 28.9504 206.209 28.9652C206.2 28.9748 206.197 28.988 206.188 28.9978L206.136 29.0455L201.26 33.9204L201.197 33.984L201.177 33.9969L201.165 34.0163L201.101 34.0803L196.404 38.7951L196.219 38.9794C196.196 39 196.166 39.0071 196.144 39.0292C196.122 39.0513 196.115 39.0813 196.094 39.1043L195.905 39.2932L191.132 44.0486L191.112 44.0619L191.1 44.0815L191.084 44.0969L186.458 48.7229L186.424 48.7656C186.409 48.7792 186.39 48.7831 186.376 48.7973L186.375 48.7994L186.369 48.794C184.952 47.2811 183.363 45.9378 181.636 44.7908C176.05 41.1436 167.812 40.9655 163.702 46.9435C162.411 49.0777 161.519 51.429 161.069 53.8823C160.358 56.7823 159.753 59.2732 157.849 60.6254C155.9 61.6595 153.697 62.1163 151.497 61.942C150.643 61.9777 149.789 62.0131 148.953 62.0844C141.558 62.7762 135.075 67.3127 131.891 74.0228C129.286 80.4028 129.376 87.5657 132.14 93.8784C135.436 102.012 141.747 108.558 149.754 112.15C153.447 113.837 157.454 114.728 161.514 114.766C162.947 114.771 164.376 114.64 165.784 114.375C171.3 113.468 176.174 110.268 179.199 105.568C181.281 101.967 182.368 97.8774 182.348 93.7183C182.366 93.1488 182.366 92.544 182.366 91.9391C182.336 90.768 182.395 89.5963 182.544 88.4341C182.637 87.288 183.036 86.188 183.7 85.2493C185.141 83.2921 187.935 82.7229 190.87 82.1358C192.044 81.9046 193.236 81.6554 194.375 81.3175C197.329 80.4635 200.549 78.2928 200.709 74.8057C200.887 71.1584 197.56 68.3295 194.197 67.4042C193.628 67.2441 193.041 67.1196 192.436 66.9949C191.344 66.81 190.28 66.4873 189.269 66.0342L206.207 49.0965L211.242 44.0615L216.277 39.0265L220.725 34.5786C221.322 34.7423 221.938 34.8259 222.557 34.8278C224.446 34.8319 226.258 34.0826 227.592 32.7461H227.61L228.855 33.9915C229.522 34.6843 230.624 34.7054 231.317 34.0388C231.333 34.0234 231.349 34.0075 231.364 33.9915C232.057 33.3003 232.058 32.1784 231.367 31.4856C231.366 31.4847 231.365 31.4837 231.364 31.4828L230.119 30.2375L232.627 27.7111L233.891 28.9565C234.557 29.6493 235.659 29.6706 236.352 29.0042C236.368 28.9886 236.384 28.9727 236.399 28.9565C237.092 28.2655 237.093 27.1436 236.402 26.451C236.401 26.4499 236.401 26.4489 236.4 26.4478ZM158.955 96.5978C158.954 96.5989 158.953 96.5999 158.952 96.6009C158.618 96.937 158.162 97.1232 157.688 97.117C157.22 97.123 156.77 96.9366 156.443 96.6009L148.882 89.0573C148.189 88.3661 148.187 87.2444 148.879 86.5516C148.88 86.5505 148.88 86.5497 148.882 86.5489V86.5487C149.56 85.851 150.675 85.8352 151.373 86.5134C151.385 86.5251 151.397 86.5368 151.408 86.5487L158.952 94.0923C159.645 94.7833 159.646 95.905 158.955 96.5978ZM163.987 101.636C163.907 101.717 163.817 101.789 163.72 101.849C163.617 101.915 163.51 101.975 163.4 102.027C163.296 102.065 163.188 102.095 163.08 102.116C162.963 102.146 162.843 102.157 162.724 102.152C162.256 102.156 161.806 101.97 161.478 101.636C160.785 100.969 160.764 99.867 161.431 99.1744C161.446 99.1584 161.462 99.1425 161.478 99.1271C161.899 98.7105 162.497 98.5247 163.08 98.629C163.189 98.6565 163.296 98.6922 163.4 98.7357L163.72 98.8959C163.813 98.9678 163.903 99.0452 163.987 99.1271C164.321 99.4549 164.508 99.9046 164.503 100.372C164.508 100.846 164.322 101.301 163.987 101.636ZM171.524 99.1183C170.827 99.8116 169.7 99.8087 169.006 99.1117C168.676 98.7799 168.49 98.3319 168.488 97.864C168.493 97.3893 168.685 96.9356 169.022 96.6007C169.729 95.9425 170.824 95.9425 171.531 96.6007C172.224 97.2979 172.221 98.4251 171.524 99.1183ZM171.561 89.0494C171.555 89.0558 171.549 89.0623 171.531 89.0571V89.0569C169.454 91.14 166.082 91.1452 163.998 89.0683C163.994 89.0646 163.991 89.0608 163.987 89.0569L156.443 81.5132C154.349 79.436 154.335 76.0546 156.413 73.9606C158.49 71.8667 161.871 71.8531 163.965 73.9304C163.972 73.9375 163.98 73.9446 163.987 73.9519L171.53 81.5134C173.62 83.5922 173.64 86.9598 171.561 89.0494ZM182.597 67.6713L180.089 70.18L175.054 65.1449L177.562 62.6365H177.571L182.602 67.6674L182.597 67.6713ZM185.657 64.6291L185.497 64.7715L185.479 64.8072L185.302 65.003L185.126 65.1608L180.092 60.1252L182.615 57.6013L187.632 62.6363L185.657 64.6291ZM190.159 60.1277L185.124 55.0927L187.508 52.6908L187.597 52.6017L187.632 52.584L187.64 52.5769L192.666 57.6028L190.159 60.1277ZM197.4 52.8686L195.194 55.0927L195.191 55.0958L190.155 50.061L190.159 50.0577L192.375 47.8411L197.401 52.8676L197.4 52.8686ZM199.926 50.36L199.926 50.3604L194.891 45.3252L197.407 42.8088L202.434 47.8347L199.926 50.36ZM204.961 45.325L204.959 45.3277L199.923 40.2929L202.44 37.7759L207.466 42.8024L204.961 45.325ZM212.505 37.7811L209.982 40.2864L204.956 35.26L207.472 32.744L212.507 37.7793L212.505 37.7811ZM215.031 35.255H215.014L209.988 30.2283L212.505 27.7113L217.54 32.7463L215.031 35.255ZM218.789 21.4097C218.788 21.4108 218.787 21.4118 218.785 21.4128C218.119 22.1057 217.017 22.1267 216.324 21.4602C216.308 21.4447 216.292 21.4289 216.277 21.4128L215.031 20.1675L217.54 17.6589L218.785 18.9042C219.478 19.5952 219.48 20.7171 218.789 21.4097ZM221.359 16.425C221.343 16.4095 221.327 16.3937 221.312 16.3776L220.067 15.1323L222.575 12.6236L223.821 13.869C224.514 14.5604 224.515 15.6823 223.823 16.3751C223.822 16.376 223.822 16.3768 223.821 16.3776C223.154 17.0705 222.052 17.0915 221.359 16.425ZM225.084 30.2198L223.821 28.9565C223.128 28.2636 223.128 27.1407 223.821 26.4478C224.514 25.755 225.637 25.755 226.329 26.4478L227.593 27.7111L225.084 30.2198ZM230.119 25.1848L228.856 23.9394C228.162 23.2401 228.162 22.1124 228.856 21.4131C229.547 20.7202 230.669 20.7192 231.362 21.4106C231.363 21.4114 231.364 21.4122 231.364 21.4131L232.628 22.6763L230.119 25.1848Z" fill="black"/>
<path d="M169.025 84.025C169.024 84.024 169.023 84.0231 169.022 84.0221L161.46 76.4784C160.768 75.7856 159.645 75.7856 158.952 76.4784C158.259 77.1713 158.259 78.2943 158.952 78.9871L166.495 86.5307C167.195 87.2246 168.323 87.2246 169.022 86.5307C169.715 85.8396 169.716 84.7178 169.025 84.025Z" fill="black"/>
</g>
<defs>
<clipPath id="clip0">
<rect width="107" height="107" fill="white" transform="translate(130 8)"/>
</clipPath>
</defs>
</svg>
